#!OML:ASF F:\VICON\USERDATA\INSTALL\rory3\rory3.ASF
:FULLY-SPECIFIED
:DEGREES
37
root 0.05817974031900022 18.293361823476143 12.870706577274643 4.483094813422807 -1.946525189154936 0.518486067123137
lfemur 13.861790965658871 -6.109832167547778 -28.0381455424906
ltibia 43.15736242931695
lfoot 20.186183859278962 -17.09491687866738
ltoes -9.016835690629405
rfemur -41.2681810765953 -0.7910021633764257 25.68177466376388
rtibia 31.822627169359524
rfoot 4.642217580833657 -2.6661576722337426
rtoes -13.617603412376756
lowerback 14.513432151846565 -1.8988847157211697 -2.2303226937798852
upperback -1.3372653786391993 -2.7709151380004933 1.9609305182873689
thorax -9.356143238745513 -1.1116774720234925 4.4566754909013415
lowerneck -21.66919531957674 -2.495778177164553 -2.1927877358637398
upperneck 13.779249886030096 -3.117801107193381 2.187594310866678
head 7.782015550247446 -1.356403488935763 0.6441919972121353
lclavicle -2.6049898073025112e-15 1.1481642950758471e-15
lhumerus -36.05040725964126 -20.472479637973702 94.85210146872573
lradius 114.46837048418956
lwrist 34.04645851660848
lhand -24.45644143594167 0.3276438352572657
lfingers 7.12502
lthumb 2.0365854793225413 30.296036163613348
rclavicle -2.6049898073025112e-15 1.1481642950758471e-15
rhumerus -65.376963986979 0.02076116433645936 -94.63208992545343
rradius 112.70569236699292
rwrist -7.6664355845240815
rhand -16.21246332848039 40.67378520889004
rfingers 7.12502
rthumb 9.993988481115293 10.460658066167358
38
root 0.048131794394567134 18.154828095417695 13.54021281417203 3.750143763949483 -2.414424774108687 0.39781055211269045
lfemur 11.9961291143918 -5.351041814670705 -27.373372794794644
ltibia 49.32124674852981
lfoot 19.76610624953488 -17.121916671588195
ltoes -6.198785201860759
rfemur -40.273884791353055 -0.9929592211992053 26.284728253999123
rtibia 33.66162748036001
rfoot 4.164646962777894 -0.7063765331793928
rtoes -9.102242199776873
lowerback 15.002207842947811 -1.695550954066995 -2.0382932307516484
upperback -1.0798819221652567 -2.4701767625461404 1.9303882928268163
thorax -9.482602428555687 -0.9809046504727214 4.188609759767228
lowerneck -21.445015278996486 -2.5205842492555846 -2.2797047107697535
upperneck 13.61023575900843 -3.1102891203597274 2.054954829085321
head 7.704481102947259 -1.3724583760196376 0.6104292833257705
lclavicle -2.865311724316705e-15 9.601093515491184e-16
lhumerus -37.0970897515026 -20.03393350684199 95.1723862372978
lradius 111.35631286046113
lwrist 34.04833880404876
lhand -24.889204635937606 -0.5647342008637677
lfingers 7.12502
lthumb 1.6186569894435492 29.40247586757173
rclavicle -2.865311724316705e-15 9.601093515491184e-16
rhumerus -64.53361173476885 -0.42961463227532093 -94.57521365931548
rradius 111.78130949905159
rwrist -7.608974218583198
rhand -16.472326186778886 40.72207374446131
rfingers 7.12502
rthumb 9.743325548133035 10.486331419314439
39
root 0.053825002852878806 17.994142070668865 14.833952479368314 3.0731147195500017 -2.9485687881063645 0.25119922257625715
lfemur 10.265577960407336 -3.9671589116218886 -26.184394855449415
ltibia 56.970247055360986
lfoot 18.983520392544133 -16.178240867906254
ltoes -4.337158419200934
rfemur -38.821172882258416 -1.1504007786695882 27.136039437114416
rtibia 37.71092637471569
rfoot 2.8648806623081597 1.247006081283427
rtoes -0.5354026525561504
lowerback 15.441863995240968 -1.348610878504985 -1.7746801368122374
upperback -0.825801390213591 -1.978748982851331 1.9808947624365347
thorax -9.558118540893473 -0.7619365260600038 4.056803145824995
lowerneck -21.03841907142495 -2.5206445031325675 -2.3302447838697913
upperneck 13.510351461371098 -3.076903213508518 1.9354418790670267
head 7.629428880938348 -1.380420219090255 0.5747584745587593
lclavicle -2.3608413910343434e-15 1.32509589442505e-15
lhumerus -38.0276313103448 -19.253558450571962 95.68184703202255
lradius 108.33531196287109
lwrist 34.25997963566345
lhand -25.671060438198285 -0.9935952362822944
lfingers 7.12502
lthumb 0.8635925933035071 28.973415160604944
rclavicle -2.360841391034343e-15 1.32509589442505e-15
rhumerus -62.96920807938855 -0.15010227707577783 -94.59681008767984
rradius 110.93623329643707
rwrist -7.563963833882228
rhand -16.65356324991306 40.66137240869542
rfingers 7.12502
rthumb 9.568650808748808 10.494732891103874
40
root 0.043682351370734146 17.795097319586528 15.858698910898365 2.468633821760598 -3.515865233369427 -0.2312458820342651
lfemur 7.12806616478853 -2.203447394837941 -24.366944091774542
ltibia 64.33334528787528
lfoot 17.23649037608984 -14.621113224447623
ltoes -3.196138349944883
rfemur -37.41507692951849 -0.6825263261518917 28.038594362475983
rtibia 42.51496023833866
rfoot 0.22126714629885402 1.621735508749767
rtoes 7.213142062150897
lowerback 15.83606862157083 -0.982369408396117 -1.3279693765862046
upperback -0.6096782096035016 -1.3994609184900089 2.090512228290603
thorax -9.660084499067558 -0.5103690927152483 3.731717941447509
lowerneck -20.845800419495593 -2.53470841498972 -2.3007307445738516
upperneck 13.554702043194427 -3.0764947489476064 1.7391236092877085
head 7.614436323303512 -1.4015808170647424 0.49370974875614987
lclavicle -2.437785336796655e-15 1.2694261546771615e-15
lhumerus -39.533565977100395 -18.377691191734076 96.19439317029409
lradius 105.12490865155328
lwrist 34.03066967210244
lhand -26.065194675471385 -1.035656989430587
lfingers 7.12502
lthumb 0.482940239959069 28.939421825247138
rclavicle -2.437785336796655e-15 1.2694261546771615e-15
rhumerus -61.157940808802365 0.5395294258347647 -95.01266311344622
rradius 109.74189003948102
rwrist -7.928691098064316
rhand -16.789886486785004 40.443665938442514
rfingers 7.12502
rthumb 9.437176278720882 10.365118060204301
